<svg preserveAspectRatio="none" width="100%" height="100%" overflow="visible" style="display: block;" viewBox="0 0 487 189.326" fill="none" xmlns="http://www.w3.org/2000/svg">
<g id="Group 3">
<path id="Vector" d="M480.003 0H6.99713C3.13272 0 0 3.33718 0 7.45379V181.872C0 185.989 3.13272 189.326 6.99713 189.326H480.003C483.867 189.326 487 185.989 487 181.872V7.45379C487 3.33718 483.867 0 480.003 0Z" fill="var(--fill-0, #F96804)"/>
<path id="Vector_2" d="M40.7102 56.9166V58.6383H36.3788V70.6905H34.3313V58.6383H30V56.9166H40.7102ZM44.9764 60.5166C45.9607 60.5166 46.8205 60.7444 47.5555 61.2014C48.3036 61.6583 48.8745 62.2844 49.2683 63.0796C49.6621 63.8622 49.8589 64.7301 49.8589 65.6818C49.8589 66.6335 49.6621 67.5083 49.2683 68.3035C48.8745 69.0861 48.3036 69.7052 47.5555 70.1622C46.8205 70.6192 45.9607 70.847 44.9764 70.847C43.992 70.847 43.1257 70.6192 42.3776 70.1622C41.6427 69.7052 41.0782 69.0861 40.6844 68.3035C40.2907 67.5083 40.0938 66.6335 40.0938 65.6818C40.0938 64.7301 40.2907 63.8622 40.6844 63.0796C41.0782 62.2844 41.6427 61.6583 42.3776 61.2014C43.1257 60.7444 43.992 60.5166 44.9764 60.5166ZM44.9764 69.1253C45.8952 69.1253 46.6237 68.7996 47.1617 68.147C47.6999 67.4818 47.9689 66.66 47.9689 65.6818C47.9689 64.7035 47.6999 63.8888 47.1617 63.2361C46.6237 62.5709 45.8952 62.2383 44.9764 62.2383C44.0576 62.2383 43.3292 62.5709 42.791 63.2361C42.253 63.8888 41.9838 64.7035 41.9838 65.6818C41.9838 66.66 42.253 67.4818 42.791 68.147C43.3292 68.7996 44.0576 69.1253 44.9764 69.1253ZM53.9411 62.3166V67.56C53.9411 68.1344 54.0264 68.5257 54.197 68.734C54.3808 68.9422 54.7418 69.047 55.2798 69.047H56.7761V70.6905H55.1223C54.0592 70.6905 53.2783 70.4683 52.7795 70.0253C52.2939 69.5822 52.051 68.8248 52.051 67.7557V62.3166H50.161V60.6731H52.051V57.8557H53.9411V60.6731H56.7761V62.3166H53.9411ZM58.0513 67.8926C58.0513 65.9753 59.2587 64.9313 61.6739 64.7622L62.8157 64.7035C63.682 64.677 64.312 64.6127 64.7058 64.5079C65.1126 64.4031 65.3095 64.1683 65.2964 63.8035C65.2701 62.7079 64.4169 62.16 62.737 62.16C61.8969 62.16 61.2866 62.304 60.906 62.5905C60.5254 62.8644 60.2957 63.2683 60.217 63.8035H58.3663C58.5369 62.6953 59.016 61.8735 59.8035 61.3383C60.591 60.7905 61.5951 60.5166 62.8157 60.5166C64.1413 60.5166 65.198 60.8422 65.9855 61.4948C66.7861 62.1335 67.1864 63.2948 67.1864 64.9774V70.6905H65.2964V69.7318C65.2964 69.367 65.3686 68.9757 65.513 68.5579C65.5261 68.5187 65.5391 68.467 65.5524 68.4013C65.5654 68.3357 65.5654 68.2839 65.5524 68.2448C65.5524 68.2057 65.5327 68.1791 65.4933 68.1666L65.4342 68.147C65.3686 68.147 65.3226 68.1791 65.2964 68.2448C65.2832 68.3105 65.2701 68.3496 65.257 68.3622C64.9682 69.1183 64.4957 69.7248 63.8395 70.1818C63.1832 70.6248 62.4088 70.847 61.5164 70.847C60.8863 70.847 60.3022 70.7226 59.7641 70.4752C59.239 70.2139 58.8191 69.8617 58.5041 69.4187C58.2022 68.9617 58.0513 68.453 58.0513 67.8926ZM65.2964 65.2905C65.0732 65.5644 64.7582 65.7531 64.3514 65.8579C63.9576 65.9627 63.367 66.0661 62.5795 66.1709C62.4351 66.1835 62.1725 66.217 61.792 66.2687C61.162 66.3596 60.6959 66.5301 60.3941 66.7774C60.0922 67.0122 59.9413 67.3518 59.9413 67.7948C59.9413 68.1861 60.0856 68.5118 60.3745 68.7731C60.6762 69.0344 61.116 69.1644 61.6935 69.1644C62.3103 69.1644 62.8879 69.0344 63.4261 68.7731C63.9773 68.4992 64.4235 68.0757 64.7648 67.5013C65.1192 66.9144 65.2964 66.1779 65.2964 65.2905ZM71.4342 56.6035V70.6905H69.5442V56.6035H71.4342ZM79.6232 63.8035C79.6232 62.4857 79.8858 61.2922 80.4107 60.2231C80.9489 59.154 81.7232 58.3127 82.7339 57.6992C83.7446 57.0731 84.9389 56.76 86.3171 56.76C87.6558 56.76 88.778 57.027 89.6837 57.5622C90.6024 58.0835 91.2915 58.7557 91.7509 59.5774C92.2103 60.3866 92.4727 61.2209 92.5384 62.0818H90.5106C90.4449 61.4948 90.248 60.9274 89.9199 60.3796C89.5918 59.8318 89.1258 59.3818 88.5221 59.0296C87.9315 58.6649 87.2161 58.4818 86.3761 58.4818C85.4048 58.4818 84.5648 58.7166 83.8561 59.1861C83.1473 59.6557 82.6027 60.2944 82.222 61.1035C81.8545 61.9127 81.6707 62.8127 81.6707 63.8035C81.6707 64.7944 81.8545 65.6943 82.222 66.5035C82.6027 67.3127 83.1473 67.9513 83.8561 68.4209C84.5648 68.8905 85.4048 69.1253 86.3761 69.1253C87.2161 69.1253 87.9315 68.9492 88.5221 68.597C89.1258 68.2322 89.5918 67.7753 89.9199 67.2274C90.248 66.6796 90.4449 66.1122 90.5106 65.5253H92.5384C92.4727 66.3861 92.2103 67.2274 91.7509 68.0492C91.2915 68.8583 90.6024 69.5291 89.6837 70.0644C88.778 70.5857 87.6558 70.847 86.3171 70.847C84.9389 70.847 83.7446 70.5409 82.7339 69.9274C81.7232 69.3013 80.9489 68.4531 80.4107 67.384C79.8858 66.3149 79.6232 65.1214 79.6232 63.8035ZM93.7931 67.8926C93.7931 65.9753 95.0005 64.9313 97.4156 64.7622L98.5575 64.7035C99.4238 64.677 100.054 64.6127 100.448 64.5079C100.854 64.4031 101.051 64.1683 101.038 63.8035C101.012 62.7079 100.159 62.16 98.4788 62.16C97.6387 62.16 97.0283 62.304 96.6478 62.5905C96.2671 62.8644 96.0375 63.2683 95.9587 63.8035H94.1081C94.2787 62.6953 94.7578 61.8735 95.5453 61.3383C96.3328 60.7905 97.3369 60.5166 98.5575 60.5166C99.8831 60.5166 100.94 60.8422 101.727 61.4948C102.528 62.1335 102.928 63.2948 102.928 64.9774V70.6905H101.038V69.7318C101.038 69.367 101.11 68.9757 101.255 68.5579C101.268 68.5187 101.281 68.467 101.294 68.4013C101.307 68.3357 101.307 68.2839 101.294 68.2448C101.294 68.2057 101.274 68.1791 101.235 68.1666L101.176 68.147C101.11 68.147 101.064 68.1791 101.038 68.2448C101.025 68.3105 101.012 68.3496 100.999 68.3622C100.71 69.1183 100.237 69.7248 99.5813 70.1818C98.925 70.6248 98.1505 70.847 97.2581 70.847C96.6281 70.847 96.044 70.7226 95.5059 70.4752C94.9808 70.2139 94.5609 69.8617 94.2459 69.4187C93.944 68.9617 93.7931 68.453 93.7931 67.8926ZM101.038 65.2905C100.815 65.5644 100.5 65.7531 100.093 65.8579C99.6994 65.9627 99.1088 66.0661 98.3213 66.1709C98.1769 66.1835 97.9143 66.217 97.5338 66.2687C96.9037 66.3596 96.4377 66.5301 96.1359 66.7774C95.834 67.0122 95.6831 67.3518 95.6831 67.7948C95.6831 68.1861 95.8274 68.5118 96.1162 68.7731C96.418 69.0344 96.8578 69.1644 97.4353 69.1644C98.0521 69.1644 98.6297 69.0344 99.1678 68.7731C99.7191 68.4992 100.165 68.0757 100.507 67.5013C100.861 66.9144 101.038 66.1779 101.038 65.2905ZM115.882 60.5166C116.918 60.5166 117.745 60.8366 118.362 61.4753C118.992 62.1014 119.307 63.1383 119.307 64.5861V70.6905H117.417V64.3513C117.417 62.8909 116.755 62.16 115.429 62.16C115.048 62.16 114.681 62.2774 114.326 62.5122C113.985 62.7344 113.703 63.06 113.48 63.4905C113.27 63.9209 113.165 64.4296 113.165 65.0166V70.6905H111.275V64.5861C111.275 63.7909 111.13 63.19 110.842 62.7861C110.553 62.3683 110.093 62.16 109.463 62.16C109.057 62.16 108.663 62.297 108.282 62.5709C107.901 62.8448 107.593 63.2361 107.357 63.7448C107.134 64.2409 107.022 64.8083 107.022 65.447V70.6905H105.132V60.6731H107.022V61.3383C107.022 61.7296 106.95 62.1531 106.806 62.61C106.806 62.6366 106.793 62.6813 106.766 62.747C106.753 62.7987 106.753 62.8448 106.766 62.884C106.779 62.9105 106.806 62.9301 106.845 62.9426H106.904C106.97 62.9426 107.022 62.8909 107.062 62.7861C107.311 62.0943 107.705 61.5465 108.243 61.1426C108.794 60.7248 109.411 60.5166 110.093 60.5166C110.723 60.5166 111.275 60.7192 111.747 61.1231C112.22 61.5144 112.528 62.0231 112.673 62.6492C112.699 62.754 112.764 62.8057 112.869 62.8057C112.974 62.8057 113.047 62.754 113.086 62.6492C113.349 61.9714 113.723 61.4487 114.208 61.084C114.707 60.7052 115.265 60.5166 115.882 60.5166ZM123.249 61.4557C123.249 61.7813 123.184 62.1405 123.052 62.5318C123.039 62.5583 123.019 62.61 122.993 62.6883C122.967 62.754 122.954 62.8127 122.954 62.8644C122.967 62.9035 123 62.9301 123.052 62.9426L123.111 62.9622C123.177 62.9622 123.236 62.8909 123.289 62.747C123.604 62.0692 124.05 61.527 124.627 61.1231C125.218 60.7192 125.9 60.5166 126.675 60.5166C127.528 60.5166 128.289 60.7388 128.959 61.1818C129.641 61.6248 130.173 62.2453 130.553 63.0405C130.934 63.8231 131.124 64.7035 131.124 65.6818C131.124 66.66 130.934 67.5475 130.553 68.3427C130.173 69.1253 129.641 69.7388 128.959 70.1818C128.289 70.6248 127.528 70.847 126.675 70.847C125.914 70.847 125.238 70.6443 124.647 70.2405C124.056 69.8226 123.604 69.2692 123.289 68.5774C123.236 68.4335 123.17 68.3748 123.092 68.4013C123.013 68.4139 122.974 68.46 122.974 68.5383C122.974 68.604 123 68.6878 123.052 68.7926C123.184 69.1965 123.249 69.5487 123.249 69.8492V74.447H121.359V60.6731H123.249V61.4557ZM126.281 69.1253C127.226 69.1253 127.955 68.7996 128.467 68.147C128.978 67.4818 129.234 66.66 129.234 65.6818C129.234 64.7035 128.978 63.8888 128.467 63.2361C127.955 62.5709 127.226 62.2383 126.281 62.2383C125.704 62.2383 125.179 62.3948 124.706 62.7079C124.247 63.0209 123.886 63.4444 123.623 63.9796C123.374 64.5009 123.249 65.0683 123.249 65.6818C123.249 66.2953 123.374 66.8683 123.623 67.4035C123.886 67.9248 124.247 68.3427 124.706 68.6557C125.179 68.9687 125.704 69.1253 126.281 69.1253ZM132.38 67.8926C132.38 65.9753 133.588 64.9313 136.003 64.7622L137.145 64.7035C138.011 64.677 138.641 64.6127 139.035 64.5079C139.442 64.4031 139.639 64.1683 139.625 63.8035C139.599 62.7079 138.746 62.16 137.066 62.16C136.226 62.16 135.616 62.304 135.235 62.5905C134.854 62.8644 134.625 63.2683 134.546 63.8035H132.695C132.866 62.6953 133.345 61.8735 134.133 61.3383C134.92 60.7905 135.924 60.5166 137.145 60.5166C138.47 60.5166 139.527 60.8422 140.314 61.4948C141.115 62.1335 141.516 63.2948 141.516 64.9774V70.6905H139.625V69.7318C139.625 69.367 139.698 68.9757 139.842 68.5579C139.855 68.5187 139.868 68.467 139.881 68.4013C139.895 68.3357 139.895 68.2839 139.881 68.2448C139.881 68.2057 139.862 68.1791 139.822 68.1666L139.763 68.147C139.698 68.147 139.652 68.1791 139.625 68.2448C139.612 68.3105 139.599 68.3496 139.586 68.3622C139.297 69.1183 138.825 69.7248 138.169 70.1818C137.512 70.6248 136.738 70.847 135.845 70.847C135.215 70.847 134.631 70.7226 134.093 70.4752C133.568 70.2139 133.148 69.8617 132.833 69.4187C132.531 68.9617 132.38 68.453 132.38 67.8926ZM139.625 65.2905C139.402 65.5644 139.087 65.7531 138.68 65.8579C138.287 65.9627 137.696 66.0661 136.908 66.1709C136.764 66.1835 136.502 66.217 136.121 66.2687C135.491 66.3596 135.025 66.5301 134.723 66.7774C134.421 67.0122 134.27 67.3518 134.27 67.7948C134.27 68.1861 134.415 68.5118 134.703 68.7731C135.005 69.0344 135.445 69.1644 136.023 69.1644C136.639 69.1644 137.217 69.0344 137.755 68.7731C138.306 68.4992 138.753 68.0757 139.094 67.5013C139.448 66.9144 139.625 66.1779 139.625 65.2905ZM143.794 56.6035H145.842V58.7948H143.794V56.6035ZM143.873 60.6731H145.763V70.6905H143.873V60.6731ZM147.493 65.6035C147.493 64.6127 147.675 63.7322 148.044 62.9622C148.423 62.1922 148.949 61.5927 149.619 61.1622C150.301 60.7318 151.076 60.5166 151.942 60.5166C152.715 60.5166 153.392 60.7052 153.97 61.084C154.546 61.4627 154.999 61.984 155.328 62.6492C155.38 62.8183 155.452 62.8909 155.545 62.8644C155.61 62.8518 155.643 62.8127 155.643 62.747C155.643 62.6953 155.629 62.6366 155.604 62.5709C155.577 62.4926 155.557 62.4409 155.545 62.4144C155.479 62.2453 155.432 62.0818 155.407 61.9253C155.38 61.7687 155.368 61.5731 155.368 61.3383V60.6731H157.258V69.7905C157.258 71.3683 156.817 72.5617 155.939 73.3709C155.072 74.1926 153.904 74.6035 152.434 74.6035C151.017 74.6035 149.914 74.2905 149.127 73.6644C148.339 73.0509 147.899 72.2683 147.808 71.3166H149.698C149.776 71.8378 150.006 72.2683 150.387 72.6079C150.766 72.9474 151.443 73.1165 152.414 73.1165C153.372 73.1165 154.101 72.8357 154.6 72.2753C155.112 71.7149 155.368 70.8861 155.368 69.7905C155.368 69.3866 155.427 69.04 155.545 68.7535C155.61 68.5844 155.643 68.4866 155.643 68.46C155.643 68.3944 155.61 68.3552 155.545 68.3427H155.505C155.427 68.3427 155.368 68.4013 155.328 68.5187C154.999 69.2105 154.546 69.7443 153.97 70.1231C153.392 70.5018 152.715 70.6905 151.942 70.6905C151.076 70.6905 150.301 70.4752 149.619 70.0448C148.949 69.6144 148.423 69.0148 148.044 68.2448C147.675 67.4748 147.493 66.5944 147.493 65.6035ZM152.375 68.9687C153.254 68.9687 153.97 68.6487 154.521 68.01C155.085 67.3714 155.368 66.5692 155.368 65.6035C155.368 64.6378 155.085 63.8357 154.521 63.197C153.97 62.5583 153.254 62.2383 152.375 62.2383C151.43 62.2383 150.695 62.5513 150.17 63.1774C149.644 63.8035 149.383 64.6127 149.383 65.6035C149.383 66.5944 149.644 67.4035 150.17 68.0296C150.695 68.6557 151.43 68.9687 152.375 68.9687ZM165.015 60.5166C166.209 60.5166 167.127 60.8618 167.771 61.5535C168.426 62.2453 168.755 63.3074 168.755 64.7426V70.6905H166.865V65.134C166.865 64.0383 166.654 63.2683 166.235 62.8252C165.827 62.3822 165.264 62.16 164.542 62.16C164.043 62.16 163.558 62.3235 163.085 62.6492C162.625 62.9622 162.244 63.4122 161.943 63.9992C161.654 64.5861 161.51 65.2583 161.51 66.0144V70.6905H159.62V60.6731H161.51V61.3383C161.51 61.8079 161.437 62.2509 161.294 62.6687C161.254 62.7987 161.228 62.8965 161.215 62.9622C161.215 63.0279 161.247 63.067 161.313 63.0796H161.353C161.417 63.0796 161.476 63.0209 161.53 62.9035C161.673 62.5513 161.91 62.1922 162.239 61.8274C162.566 61.4487 162.967 61.1356 163.44 60.8883C163.925 60.6409 164.449 60.5166 165.015 60.5166ZM172.031 67.2079C172.043 67.4943 172.135 67.7948 172.306 68.1079C172.476 68.4083 172.759 68.6683 173.153 68.8905C173.546 69.0987 174.044 69.2035 174.649 69.2035C175.528 69.2035 176.158 69.0666 176.539 68.7926C176.919 68.5187 177.11 68.1861 177.11 67.7948C177.11 67.4943 177.005 67.2596 176.795 67.0905C176.598 66.9074 176.276 66.7648 175.83 66.66C175.397 66.5552 174.773 66.4644 173.96 66.3861C172.725 66.2562 171.839 65.9431 171.302 65.447C170.763 64.9509 170.495 64.3388 170.495 63.6079C170.495 63.0866 170.652 62.5905 170.967 62.1209C171.282 61.6388 171.748 61.2531 172.365 60.9666C172.995 60.6661 173.749 60.5166 174.629 60.5166C175.85 60.5166 176.815 60.8296 177.523 61.4557C178.232 62.0692 178.619 62.8644 178.685 63.8427H176.834C176.795 63.4122 176.604 63.0279 176.263 62.6883C175.922 62.3361 175.358 62.16 174.57 62.16C173.822 62.16 173.271 62.29 172.916 62.5513C172.562 62.7987 172.385 63.1062 172.385 63.4709C172.385 63.8231 172.555 64.104 172.897 64.3122C173.237 64.5204 173.921 64.677 174.944 64.7818C176.335 64.9257 177.359 65.2122 178.016 65.6426C178.671 66.0731 179 66.6922 179 67.5013C179 68.5187 178.599 69.3335 177.799 69.947C177.012 70.5465 175.934 70.847 174.57 70.847C173.217 70.847 172.161 70.5214 171.401 69.8687C170.638 69.2161 170.232 68.3301 170.18 67.2079H172.031Z" fill="var(--fill-0, white)"/>
<path id="Vector_3" d="M36.421 94.9057H39.3396V121.501H35.8372V102.612H30V99.8924C35.5819 99.8924 35.8008 99.0613 36.421 94.9057ZM60.5648 107.901C63.4469 108.884 65.0157 111.226 65.0157 114.059C65.0157 118.366 61.5498 121.804 55.3842 121.804C49.2187 121.804 45.7528 118.366 45.7528 114.059C45.7528 111.226 47.358 108.959 50.2037 107.901C50.4226 107.826 50.7509 107.788 50.7509 107.486C50.7509 107.184 50.4226 107.146 50.2402 107.07C48.0512 106.088 46.6284 104.086 46.6284 101.706C46.6284 97.7391 49.7294 94.6035 55.3842 94.6035C61.0391 94.6035 64.1401 97.7391 64.1401 101.706C64.1401 104.086 62.7538 106.164 60.5283 107.07C60.3459 107.146 60.0176 107.184 60.0176 107.486C60.0176 107.788 60.3459 107.826 60.5648 107.901ZM50.1307 101.895C50.1307 104.199 51.736 106.012 55.3842 106.012C59.0325 106.012 60.6378 104.199 60.6378 101.895C60.6378 99.5902 59.0325 97.7768 55.3842 97.7768C51.736 97.7768 50.1307 99.5902 50.1307 101.895ZM55.3842 118.63C59.5433 118.63 61.5133 116.515 61.5133 113.908C61.5133 111.301 59.2879 109.186 55.3842 109.186C51.4806 109.186 49.2551 111.301 49.2551 113.908C49.2551 116.515 51.2252 118.63 55.3842 118.63Z" fill="var(--fill-0, white)"/>
</g>
</svg>
